[Header]
FileType HTR
DataType HTRS
FileVersion 1
NumSegments 64
NumFrames 4
DataFrameRate 30
EulerRotationOrder ZYX
CalibrationUnits mm
RotationUnits Degrees
GlobalAxisofGravity Y
BoneLengthAxis Y
ScaleFactor 1.0
[SegmentNames&Hierarchy]
Hips	GLOBAL
Spine	Hips
Spine1	Spine
Spine2	Spine1
Neck	Spine2
Head	Neck
LeftEye	Head
RightEye	Head
LeftShoulder	Spine2
LeftArm	LeftShoulder
LeftForeArm	LeftArm
LeftHand	LeftForeArm
LeftHandThumb1	LeftHand
LeftHandThumb2	LeftHandThumb1
LeftHandThumb3	LeftHandThumb2
LeftHandThumb4	LeftHandThumb3
LeftHandIndex1	LeftHand
LeftHandIndex2	LeftHandIndex1
LeftHandIndex3	LeftHandIndex2
LeftHandIndex4	LeftHandIndex3
LeftHandMiddle1	LeftHand
LeftHandMiddle2	LeftHandMiddle1
LeftHandMiddle3	LeftHandMiddle2
LeftHandMiddle4	LeftHandMiddle3
LeftHandRing1	LeftHand
LeftHandRing2	LeftHandRing1
LeftHandRing3	LeftHandRing2
LeftHandRing4	LeftHandRing3
LeftHandPinky1	LeftHand
LeftHandPinky2	LeftHandPinky1
LeftHandPinky3	LeftHandPinky2
LeftHandPinky4	LeftHandPinky3
RightShoulder	Spine2
RightArm	RightShoulder
RightForeArm	RightArm
RightHand	RightForeArm
RightHandPinky1	RightHand
RightHandPinky2	RightHandPinky1
RightHandPinky3	RightHandPinky2
RightHandPinky4	RightHandPinky3
RightHandRing1	RightHand
RightHandRing2	RightHandRing1
RightHandRing3	RightHandRing2
RightHandRing4	RightHandRing3
RightHandMiddle1	RightHand
RightHandMiddle2	RightHandMiddle1
RightHandMiddle3	RightHandMiddle2
RightHandMiddle4	RightHandMiddle3
RightHandIndex1	RightHand
RightHandIndex2	RightHandIndex1
RightHandIndex3	RightHandIndex2
RightHandIndex4	RightHandIndex3
RightHandThumb1	RightHand
RightHandThumb2	RightHandThumb1
RightHandThumb3	RightHandThumb2
RightHandThumb4	RightHandThumb3
LeftUpLeg	Hips
LeftLeg	LeftUpLeg
LeftFoot	LeftLeg
LeftToeBase	LeftFoot
RightUpLeg	Hips
RightLeg	RightUpLeg
RightFoot	RightLeg
RightToeBase	RightFoot
[BasePosition]
Hips	0	0	0	0	0	0	1
Spine	0	0	0	0	0	0	1
Spine1	0	0	0	0	0	0	1
Spine2	0	0	0	0	0	0	1
Neck	0	0	0	0	0	0	1
Head	0	0	0	0	0	0	1
LeftEye	0	0	0	0	0	0	1
RightEye	0	0	0	0	0	0	1
LeftShoulder	0	0	0	0	0	0	1
LeftArm	0	0	0	0	0	0	1
LeftForeArm	0	0	0	0	0	0	1
LeftHand	0	0	0	0	0	0	1
LeftHandThumb1	0	0	0	0	0	0	1
LeftHandThumb2	0	0	0	0	0	0	1
LeftHandThumb3	0	0	0	0	0	0	1
LeftHandThumb4	0	0	0	0	0	0	1
LeftHandIndex1	0	0	0	0	0	0	1
LeftHandIndex2	0	0	0	0	0	0	1
LeftHandIndex3	0	0	0	0	0	0	1
LeftHandIndex4	0	0	0	0	0	0	1
LeftHandMiddle1	0	0	0	0	0	0	1
LeftHandMiddle2	0	0	0	0	0	0	1
LeftHandMiddle3	0	0	0	0	0	0	1
LeftHandMiddle4	0	0	0	0	0	0	1
LeftHandRing1	0	0	0	0	0	0	1
LeftHandRing2	0	0	0	0	0	0	1
LeftHandRing3	0	0	0	0	0	0	1
LeftHandRing4	0	0	0	0	0	0	1
LeftHandPinky1	0	0	0	0	0	0	1
LeftHandPinky2	0	0	0	0	0	0	1
LeftHandPinky3	0	0	0	0	0	0	1
LeftHandPinky4	0	0	0	0	0	0	1
RightShoulder	0	0	0	0	0	0	1
RightArm	0	0	0	0	0	0	1
RightForeArm	0	0	0	0	0	0	1
RightHand	0	0	0	0	0	0	1
RightHandPinky1	0	0	0	0	0	0	1
RightHandPinky2	0	0	0	0	0	0	1
RightHandPinky3	0	0	0	0	0	0	1
RightHandPinky4	0	0	0	0	0	0	1
RightHandRing1	0	0	0	0	0	0	1
RightHandRing2	0	0	0	0	0	0	1
RightHandRing3	0	0	0	0	0	0	1
RightHandRing4	0	0	0	0	0	0	1
RightHandMiddle1	0	0	0	0	0	0	1
RightHandMiddle2	0	0	0	0	0	0	1
RightHandMiddle3	0	0	0	0	0	0	1
RightHandMiddle4	0	0	0	0	0	0	1
RightHandIndex1	0	0	0	0	0	0	1
RightHandIndex2	0	0	0	0	0	0	1
RightHandIndex3	0	0	0	0	0	0	1
RightHandIndex4	0	0	0	0	0	0	1
RightHandThumb1	0	0	0	0	0	0	1
RightHandThumb2	0	0	0	0	0	0	1
RightHandThumb3	0	0	0	0	0	0	1
RightHandThumb4	0	0	0	0	0	0	1
LeftUpLeg	0	0	0	0	0	0	1
LeftLeg	0	0	0	0	0	0	1
LeftFoot	0	0	0	0	0	0	1
LeftToeBase	0	0	0	0	0	0	1
RightUpLeg	0	0	0	0	0	0	1
RightLeg	0	0	0	0	0	0	1
RightFoot	0	0	0	0	0	0	1
RightToeBase	0	0	0	0	0	0	1
[Hips]
144	-26.62488937	974.173584	804.1021118	-539.5306396	189.0624237	-182.9177094	1.0
145	-19.04988861	971.4800415	789.1486816	-541.2076416	199.3233032	-181.9171448	1.0
146	-15.21043873	967.9113159	770.1421509	-542.3966675	207.9168396	-180.8845215	1.0
147	-13.70715332	965.7581177	748.0725098	-542.8343506	215.2147522	-180.8103485	1.0
[Spine]
144	0	101.8159943	1.315000057	1.980557561	-0.4870336354	-0.8494318128	1.0
145	0	101.8159943	1.315000057	1.674087882	-0.1834822893	-0.9816149473	1.0
146	0	101.8159943	1.315000057	1.398710251	0.05070956424	-0.9458624721	1.0
147	0	101.8159943	1.315000057	1.196632504	0.3951053321	-0.6860532165	1.0
[Spine1]
144	0	100.8349991	-10.00800037	3.970669508	-0.9389892817	-2.143625021	1.0
145	0	100.8349991	-10.00800037	3.351460218	-0.3293173611	-2.283070087	1.0
146	0	100.8349991	-10.00800037	2.795978069	0.1361681968	-2.222793579	1.0
147	0	100.8349991	-10.00800037	2.3852005	0.8745342493	-1.931202888	1.0
[Spine2]
144	0	91	-13.73399925	3.970671654	-0.9389921427	-2.143626451	1.0
145	0	91	-13.73399925	3.351461649	-0.3293218613	-2.283069849	1.0
146	0	91	-13.73399925	2.795977831	0.1361775845	-2.222793818	1.0
147	0	91	-13.73399925	2.3852005	0.874530673	-1.931203008	1.0
[Neck]
144	0	166.7169952	-25.16200066	15.00080776	2.475800276	-0.9509401917	1.0
145	0	166.7169952	-25.16200066	15.35575294	3.866873741	-2.282150984	1.0
146	0	166.7169952	-25.16200066	15.15531158	4.953224659	-3.351437807	1.0
147	0	166.7169952	-25.16200066	15.10613251	5.325127125	-3.255289316	1.0
[Head]
144	0	96.17900085	16.84999847	-10.7533989	9.861553192	-0.5125913024	1.0
145	0	96.17900085	16.84999847	-9.605427742	15.34532356	-2.050703526	1.0
146	0	96.17900085	16.84999847	-8.953491211	19.57335091	-3.284268618	1.0
147	0	96.17900085	16.84999847	-8.698883057	22.40900803	-3.978450775	1.0
[LeftEye]
144	30.6760006	64.09500122	92.83599854	0	0	0	1.0
145	30.6760006	64.09500122	92.83599854	0	0	0	1.0
146	30.6760006	64.09500122	92.83599854	0	0	0	1.0
147	30.6760006	64.09500122	92.83599854	0	0	0	1.0
[RightEye]
144	-30.6760006	64.09500122	92.83499908	0	0	0	1.0
145	-30.6760006	64.09500122	92.83499908	0	0	0	1.0
146	-30.6760006	64.09500122	92.83499908	0	0	0	1.0
147	-30.6760006	64.09500122	92.83499908	0	0	0	1.0
[LeftShoulder]
144	45.70400238	109.4599991	-26.28000069	-4.417912483	-20.45176697	15.63443279	1.0
145	45.70400238	109.4599991	-26.28000069	-4.097969055	-19.62087059	15.09769154	1.0
146	45.70400238	109.4599991	-26.28000069	-3.571104527	-18.92632294	13.72525215	1.0
147	45.70400238	109.4599991	-26.28000069	-3.466115475	-19.0814476	13.30458164	1.0
[LeftArm]
144	105.923996	-5.24600029	-22.32099915	-7.313222885	-4.161096573	-41.48729324	1.0
145	105.923996	-5.24600029	-22.32099915	-12.80000114	-0.8291195631	-41.57141876	1.0
146	105.923996	-5.24600029	-22.32099915	-19.6673584	3.345214367	-40.81954193	1.0
147	105.923996	-5.24600029	-22.32099915	-26.1411705	7.174903393	-40.18238449	1.0
[LeftForeArm]
144	278.414978	-0.0009999999311	0	-545.1210938	-64.1906662	542.277771	1.0
145	278.414978	-0.0009999999311	0	-546.5005493	-67.57720947	543.5048828	1.0
146	278.414978	-0.0009999999311	0	-547.9508057	-69.14609528	544.8265381	1.0
147	278.414978	-0.0009999999311	0	-548.3492432	-67.74842072	545.1138306	1.0
[LeftHand]
144	283.2879944	0	0	15.92520809	-2.978803396	2.4892869	1.0
145	283.2879944	0	0	17.58791924	-0.3939059675	5.270171165	1.0
146	283.2879944	0	0	16.51609039	1.677382112	6.542177677	1.0
147	283.2879944	0	0	14.01802063	3.869912386	6.470668316	1.0
[LeftHandThumb1]
144	24.6609993	-15.75	26.8239994	16.63473701	-19.87647629	3.170418739	1.0
145	24.6609993	-15.75	26.8239994	15.62834454	-19.36463928	2.28375268	1.0
146	24.6609993	-15.75	26.8239994	14.30745506	-18.22927094	1.31424284	1.0
147	24.6609993	-15.75	26.8239994	12.8090744	-16.67247009	0.3063957095	1.0
[LeftHandThumb2]
144	32.29800034	-18.64699936	18.64699936	3.041688442	23.63035393	-19.82004166	1.0
145	32.29800034	-18.64699936	18.64699936	2.117793322	24.55591393	-21.93200874	1.0
146	32.29800034	-18.64699936	18.64699936	1.169627786	25.40285873	-24.20534325	1.0
147	32.29800034	-18.64699936	18.64699936	0.166278854	26.11202049	-26.6068573	1.0
[LeftHandThumb3]
144	26.52600098	-15.31499958	15.31499958	3.601811159e-06	-8.438974328e-05	-6.943767221e-05	1.0
145	26.52600098	-15.31499958	15.31499958	3.601811159e-06	-8.438974328e-05	-6.943767221e-05	1.0
146	26.52600098	-15.31499958	15.31499958	3.601811159e-06	-8.438974328e-05	-6.943767221e-05	1.0
147	26.52600098	-15.31499958	15.31499958	3.601811159e-06	-8.438974328e-05	-6.943767221e-05	1.0
[LeftHandThumb4]
144	19.54599953	-11.28499985	11.28499985	0	0	0	1.0
145	19.54599953	-11.28499985	11.28499985	0	0	0	1.0
146	19.54599953	-11.28499985	11.28499985	0	0	0	1.0
147	19.54599953	-11.28499985	11.28499985	0	0	0	1.0
[LeftHandIndex1]
144	91.09299469	-5.170999527	22.60099792	-1.765092731	-5.675202847	-46.49610901	1.0
145	91.09299469	-5.170999527	22.60099792	-1.804174781	-5.934348106	-49.54291153	1.0
146	91.09299469	-5.170999527	22.60099792	-1.823329806	-6.204349041	-52.76612091	1.0
147	91.09299469	-5.170999527	22.60099792	-1.851644039	-6.535204887	-55.98232651	1.0
[LeftHandIndex2]
144	36.76399994	0	0	-0.354213357	-6.675641537	-70.95658112	1.0
145	36.76399994	0	0	0.111770235	-7.523757935	-77.79483032	1.0
146	36.76399994	0	0	0.6710284352	-8.295877457	-84.53256226	1.0
147	36.76399994	0	0	1.370409012	-9.02209568	-91.57801056	1.0
[LeftHandIndex3]
144	28.83100128	0	0	-1.432096042e-06	3.907105395e-07	1.552835329e-06	1.0
145	28.83100128	0	0	-1.432096042e-06	3.907105395e-07	1.552835329e-06	1.0
146	28.83100128	0	0	-1.432096042e-06	3.907105395e-07	1.552835329e-06	1.0
147	28.83100128	0	0	-1.432096042e-06	3.907105395e-07	1.552835329e-06	1.0
[LeftHandIndex4]
144	23.92700005	0	0	0	0	0	1.0
145	23.92700005	0	0	0	0	0	1.0
146	23.92700005	0	0	0	0	0	1.0
147	23.92700005	0	0	0	0	0	1.0
[LeftHandMiddle1]
144	95.33399963	0	0	-1.872748971	-4.61024189	-54.23706055	1.0
145	95.33399963	0	0	-1.837168217	-5.000916958	-57.21508026	1.0
146	95.33399963	0	0	-1.778205991	-5.407448769	-60.3351593	1.0
147	95.33399963	0	0	-1.70208025	-5.826823235	-63.44768143	1.0
[LeftHandMiddle2]
144	36.98199844	0	0	0.2885699272	-6.935997009	-66.6812439	1.0
145	36.98199844	0	0	0.6786127687	-7.522649288	-72.49450684	1.0
146	36.98199844	0	0	1.118268609	-8.053215027	-78.17905426	1.0
147	36.98199844	0	0	1.636289239	-8.547142982	-84.01011658	1.0
[LeftHandMiddle3]
144	29.50900078	0	0	0	-3.180554719e-15	-7.951386796e-16	1.0
145	29.50900078	0	0	0	-3.180554719e-15	-7.951386796e-16	1.0
146	29.50900078	0	0	0	-3.180554719e-15	-7.951386796e-16	1.0
147	29.50900078	0	0	0	-3.180554719e-15	-7.951386796e-16	1.0
[LeftHandMiddle4]
144	28.3390007	0	0	0	0	0	1.0
145	28.3390007	0	0	0	0	0	1.0
146	28.3390007	0	0	0	0	0	1.0
147	28.3390007	0	0	0	0	0	1.0
[LeftHandRing1]
144	91.04499817	-0.4390000105	-18.65100098	-2.919910192	-0.0726441443	-62.99622345	1.0
145	91.04499817	-0.4390000105	-18.65100098	-2.765120029	-0.6531767845	-65.79337311	1.0
146	91.04499817	-0.4390000105	-18.65100098	-2.585116625	-1.251695037	-68.7277298	1.0
147	91.04499817	-0.4390000105	-18.65100098	-2.338432312	-1.855902553	-71.97520447	1.0
[LeftHandRing2]
144	31.54000092	0	0	5.075390339	-2.59791851	-72.84545898	1.0
145	31.54000092	0	0	5.469992161	-2.448371172	-77.7420578	1.0
146	31.54000092	0	0	5.842807293	-2.268708706	-82.54003906	1.0
147	31.54000092	0	0	6.200822353	-2.049680471	-87.4960022	1.0
[LeftHandRing3]
144	29.37700081	0	0	1.590277359e-15	3.180554719e-15	-7.951386796e-16	1.0
145	29.37700081	0	0	1.590277359e-15	3.180554719e-15	-7.951386796e-16	1.0
146	29.37700081	0	0	1.590277359e-15	3.180554719e-15	-7.951386796e-16	1.0
147	29.37700081	0	0	1.590277359e-15	3.180554719e-15	-7.951386796e-16	1.0
[LeftHandRing4]
144	26.47500038	0	0	0	0	0	1.0
145	26.47500038	0	0	0	0	0	1.0
146	26.47500038	0	0	0	0	0	1.0
147	26.47500038	0	0	0	0	0	1.0
[LeftHandPinky1]
144	80.77799988	-4.887000084	-38.06099701	-3.342999935	2.615515947	-59.11826324	1.0
145	80.77799988	-4.887000084	-38.06099701	-3.180677891	1.682816982	-61.85984039	1.0
146	80.77799988	-4.887000084	-38.06099701	-2.994331121	0.7262309194	-64.76623535	1.0
147	80.77799988	-4.887000084	-38.06099701	-2.725552797	-0.2870368659	-68.60814667	1.0
[LeftHandPinky2]
144	36	0	0	8.622231483	-0.6036033034	-81.8156662	1.0
145	36	0	0	8.84475708	-0.1518449485	-85.04795837	1.0
146	36	0	0	9.083106995	0.4135399759	-88.97921753	1.0
147	36	0	0	9.311948776	1.172385812	-94.09370422	1.0
[LeftHandPinky3]
144	21.14200211	0	0	3.226109357e-06	2.925280342e-06	-5.739977951e-06	1.0
145	21.14200211	0	0	3.226109357e-06	2.925280342e-06	-5.739977951e-06	1.0
146	21.14200211	0	0	3.226109357e-06	2.925280342e-06	-5.739977951e-06	1.0
147	21.14200211	0	0	3.226109357e-06	2.925280342e-06	-5.739977951e-06	1.0
[LeftHandPinky4]
144	19.75699997	0	0	0	0	0	1.0
145	19.75699997	0	0	0	0	0	1.0
146	19.75699997	0	0	0	0	0	1.0
147	19.75699997	0	0	0	0	0	1.0
[RightShoulder]
144	-45.70000076	109.4620056	-26.28000069	0.484242171	2.302433491	5.56746006	1.0
145	-45.70000076	109.4620056	-26.28000069	0.5305917859	4.508200645	4.908998013	1.0
146	-45.70000076	109.4620056	-26.28000069	0.345767647	5.159490108	2.786894083	1.0
147	-45.70000076	109.4620056	-26.28000069	0.2650462985	4.326771736	1.782162189	1.0
[RightArm]
144	-105.9280014	-5.248000145	-22.32099915	-315.4212646	64.57421875	-274.7813721	1.0
145	-105.9280014	-5.248000145	-22.32099915	-312.526123	62.04394913	-273.0999451	1.0
146	-105.9280014	-5.248000145	-22.32099915	-309.2166748	59.59457397	-269.3388672	1.0
147	-105.9280014	-5.248000145	-22.32099915	-306.1624451	57.94022369	-266.0613403	1.0
[RightForeArm]
144	-278.414978	0	0	2.274449587	102.5789795	3.681423664	1.0
145	-278.414978	0	0	2.285716534	104.7193756	3.491834879	1.0
146	-278.414978	0	0	2.43566823	106.2324753	3.477996826	1.0
147	-278.414978	0	0	2.626656771	107.230072	3.528342009	1.0
[RightHand]
144	-283.2879944	0	0.0009999999311	16.56164551	10.09222126	12.99542809	1.0
145	-283.2879944	0	0.0009999999311	22.30397987	10.65945244	8.640048981	1.0
146	-283.2879944	0	0.0009999999311	26.63811302	11.43908119	6.087191582	1.0
147	-283.2879944	0	0.0009999999311	27.27383423	12.22911167	5.372078419	1.0
[RightHandPinky1]
144	-80.76699829	-4.885000229	-38.06000137	-2.197678804	6.584007263	79.01006317	1.0
145	-80.76699829	-4.885000229	-38.06000137	-1.898110867	8.249667168	84.42254639	1.0
146	-80.76699829	-4.885000229	-38.06000137	-1.518693209	9.790975571	89.65312958	1.0
147	-80.76699829	-4.885000229	-38.06000137	-1.083379626	11.17137146	94.5943222	1.0
[RightHandPinky2]
144	-36	0	0.0009999999311	11.4360733	5.249379635	70.72671509	1.0
145	-36	0	0.0009999999311	12.01093102	4.985933304	73.63478851	1.0
146	-36	0	0.0009999999311	12.55977726	4.696695328	76.56686401	1.0
147	-36	0	0.0009999999311	13.07423592	4.381659031	79.51062775	1.0
[RightHandPinky3]
144	-21.14200211	0	0	-1.590277359e-15	0	-7.951386796e-16	1.0
145	-21.14200211	0	0	-1.590277359e-15	0	-7.951386796e-16	1.0
146	-21.14200211	0	0	-1.590277359e-15	0	-7.951386796e-16	1.0
147	-21.14200211	0	0	-1.590277359e-15	0	-7.951386796e-16	1.0
[RightHandPinky4]
144	-19.75699997	0	0	0	0	0	1.0
145	-19.75699997	0	0	0	0	0	1.0
146	-19.75699997	0	0	0	0	0	1.0
147	-19.75699997	0	0	0	0	0	1.0
[RightHandRing1]
144	-91.03599548	-0.4390000105	-18.65100098	-3.800680876	5.313089371	77.45658875	1.0
145	-91.03599548	-0.4390000105	-18.65100098	-3.669635296	6.348330975	82.57765198	1.0
146	-91.03599548	-0.4390000105	-18.65100098	-3.470200539	7.309501171	87.53731537	1.0
147	-91.03599548	-0.4390000105	-18.65100098	-3.213506937	8.175022125	92.24330902	1.0
[RightHandRing2]
144	-31.54000092	0	0	5.407464027	4.168007851	59.5523262	1.0
145	-31.54000092	0	0	5.88875103	4.195038319	63.40009689	1.0
146	-31.54000092	0	0	6.360028267	4.193406582	67.2149353	1.0
147	-31.54000092	0	0	6.815104008	4.164048195	70.97750092	1.0
[RightHandRing3]
144	-29.37700081	0	0	5.740008078e-07	-7.531911024e-07	-2.69121324e-06	1.0
145	-29.37700081	0	0	5.740008078e-07	-7.531911024e-07	-2.69121324e-06	1.0
146	-29.37700081	0	0	5.740008078e-07	-7.531911024e-07	-2.69121324e-06	1.0
147	-29.37700081	0	0	5.740008078e-07	-7.531911024e-07	-2.69121324e-06	1.0
[RightHandRing4]
144	-26.47500038	0	0	0	0	0	1.0
145	-26.47500038	0	0	0	0	0	1.0
146	-26.47500038	0	0	0	0	0	1.0
147	-26.47500038	0	0	0	0	0	1.0
[RightHandMiddle1]
144	-95.32500458	0	0	-2.266333103	5.373376846	72.22982025	1.0
145	-95.32500458	0	0	-1.956274033	5.868388176	77.57195282	1.0
146	-95.32500458	0	0	-1.603397608	6.323601246	82.72327423	1.0
147	-95.32500458	0	0	-1.224070787	6.732082367	87.58351135	1.0
[RightHandMiddle2]
144	-36.98199844	0	0	-1.665809393	5.243123531	62.39858627	1.0
145	-36.98199844	0	0	-1.569414735	5.679360867	67.15678406	1.0
146	-36.98199844	0	0	-1.418297172	6.113987923	72.07244873	1.0
147	-36.98199844	0	0	-1.210201383	6.53579855	77.07888031	1.0
[RightHandMiddle3]
144	-29.50900078	0	0	1.856611448e-06	-0.002022909233	1.577868488e-06	1.0
145	-29.50900078	0	0	1.856611448e-06	-0.002022909233	1.577868488e-06	1.0
146	-29.50900078	0	0	1.856611448e-06	-0.002022909233	1.577868488e-06	1.0
147	-29.50900078	0	0	1.856611448e-06	-0.002022909233	1.577868488e-06	1.0
[RightHandMiddle4]
144	-28.3390007	0	0.0009999999311	0	0	0	1.0
145	-28.3390007	0	0.0009999999311	0	0	0	1.0
146	-28.3390007	0	0.0009999999311	0	0	0	1.0
147	-28.3390007	0	0.0009999999311	0	0	0	1.0
[RightHandIndex1]
144	-91.08300018	-5.167999744	22.60099792	0.02716731839	1.58098197	73.4461441	1.0
145	-91.08300018	-5.167999744	22.60099792	0.5663171411	1.661375523	79.78330231	1.0
146	-91.08300018	-5.167999744	22.60099792	1.136305809	1.717729688	85.85495758	1.0
147	-91.08300018	-5.167999744	22.60099792	1.712210059	1.756801248	91.53382874	1.0
[RightHandIndex2]
144	-36.76399994	0	0	-2.932740688	4.085354805	63.10273743	1.0
145	-36.76399994	0	0	-2.921555281	4.620219231	67.91460419	1.0
146	-36.76399994	0	0	-2.848781109	5.141569138	72.70822144	1.0
147	-36.76399994	0	0	-2.713984966	5.642495155	77.44219971	1.0
[RightHandIndex3]
144	-28.83100128	0	0	-3.180554719e-15	0	0	1.0
145	-28.83100128	0	0	-3.180554719e-15	0	0	1.0
146	-28.83100128	0	0	-3.180554719e-15	0	0	1.0
147	-28.83100128	0	0	-3.180554719e-15	0	0	1.0
[RightHandIndex4]
144	-23.92700005	0	0	0	0	0	1.0
145	-23.92700005	0	0	0	0	0	1.0
146	-23.92700005	0	0	0	0	0	1.0
147	-23.92700005	0	0	0	0	0	1.0
[RightHandThumb1]
144	-24.64799881	-15.72700024	26.82600021	6.587284088	13.67873955	-4.761181831	1.0
145	-24.64799881	-15.72700024	26.82600021	6.680152893	13.62967777	-2.692420959	1.0
146	-24.64799881	-15.72700024	26.82600021	6.792732239	13.57097054	-0.7777311206	1.0
147	-24.64799881	-15.72700024	26.82600021	6.92380619	13.50740051	0.9192529917	1.0
[RightHandThumb2]
144	-32.29800034	-18.64699936	18.64699936	4.151134491	-25.212183	35.53933334	1.0
145	-32.29800034	-18.64699936	18.64699936	3.251228333	-27.0882225	36.99143982	1.0
146	-32.29800034	-18.64699936	18.64699936	2.374114037	-28.88238335	38.36214066	1.0
147	-32.29800034	-18.64699936	18.64699936	1.567747235	-30.56217766	39.60931778	1.0
[RightHandThumb3]
144	-26.52600098	-15.31399918	15.31399918	-3.81245151e-08	-0.00121095567	-0.001221005921	1.0
145	-26.52600098	-15.31399918	15.31399918	-3.81245151e-08	-0.00121095567	-0.001221005921	1.0
146	-26.52600098	-15.31399918	15.31399918	-3.81245151e-08	-0.00121095567	-0.001221005921	1.0
147	-26.52600098	-15.31399918	15.31399918	-3.81245151e-08	-0.00121095567	-0.001221005921	1.0
[RightHandThumb4]
144	-19.54599953	-11.28499985	11.28499985	0	0	0	1.0
145	-19.54599953	-11.28499985	11.28499985	0	0	0	1.0
146	-19.54599953	-11.28499985	11.28499985	0	0	0	1.0
147	-19.54599953	-11.28499985	11.28499985	0	0	0	1.0
[LeftUpLeg]
144	82.07800293	-67.51699829	-15.99599934	-22.11033821	11.65794849	1.474863052	1.0
145	82.07800293	-67.51699829	-15.99599934	-18.47868347	11.52909565	1.746524692	1.0
146	82.07800293	-67.51699829	-15.99599934	-16.48624802	12.35790539	2.091700792	1.0
147	82.07800293	-67.51699829	-15.99599934	-16.52247238	13.57850361	2.649749517	1.0
[LeftLeg]
144	0	-443.7049866	2.845999956	42.76269913	1.977990031	5.899599552	1.0
145	0	-443.7049866	2.845999956	43.05984497	-1.61111474	3.709635019	1.0
146	0	-443.7049866	2.845999956	43.8277092	-5.297656059	0.07414417714	1.0
147	0	-443.7049866	2.845999956	44.51964188	-2.463512421	2.432883501	1.0
[LeftFoot]
144	0	-444.2789917	-29.8219986	-20.82626915	1.128441572	-4.313591957	1.0
145	0	-444.2789917	-29.8219986	-23.30603027	-0.4539196491	-4.456392765	1.0
146	0	-444.2789917	-29.8219986	-25.63048744	-0.3316401541	-4.102176666	1.0
147	0	-444.2789917	-29.8219986	-25.84967422	-0.7401972413	-6.043198109	1.0
[LeftToeBase]
144	0	-87.28699493	107.1060028	-1.781297684	-5.264311085e-07	2.308661124e-06	1.0
145	0	-87.28699493	107.1060028	-1.447427988	-1.655506253e-06	1.252103289e-06	1.0
146	0	-87.28699493	107.1060028	-1.239495039	-4.11054225e-06	-4.978902624e-08	1.0
147	0	-87.28699493	107.1060028	-1.39001894	4.677371635e-06	9.60193006e-07	1.0
[RightUpLeg]
144	-82.07800293	-67.51699829	-15.99599934	-25.61833954	-11.96788883	-6.896681309	1.0
145	-82.07800293	-67.51699829	-15.99599934	-21.11276436	-11.43020344	-9.521073341	1.0
146	-82.07800293	-67.51699829	-15.99599934	-16.77835464	-11.32740879	-12.52895641	1.0
147	-82.07800293	-67.51699829	-15.99599934	-12.18356133	-12.04285908	-14.38005829	1.0
[RightLeg]
144	0	-443.7049866	2.861999989	54.78968811	-1.378611803	-8.140102386	1.0
145	0	-443.7049866	2.861999989	56.84302902	-0.3617268801	-11.1881752	1.0
146	0	-443.7049866	2.861999989	55.45595169	-0.3039775491	-14.46484184	1.0
147	0	-443.7049866	2.861999989	50.75144196	0.349912554	-13.99842644	1.0
[RightFoot]
144	0	-444.2770081	-29.83799934	-0.1108016968	-11.22049427	9.553854942	1.0
145	0	-444.2770081	-29.83799934	3.101807833	-12.19140625	7.834532738	1.0
146	0	-444.2770081	-29.83799934	6.877900124	-12.59892941	6.639183044	1.0
147	0	-444.2770081	-29.83799934	7.957734585	-10.98107815	8.33732605	1.0
[RightToeBase]
144	0	-87.28699493	107.1060028	-8.520475388	0.05707804486	0.451297611	1.0
145	0	-87.28699493	107.1060028	-10.73177528	-0.005233580247	-0.04150518402	1.0
146	0	-87.28699493	107.1060028	-13.57680225	-1.577855801e-05	-2.650059741e-06	1.0
147	0	-87.28699493	107.1060028	-17.96209526	-0.1041598246	-0.3243887126	1.0
[EndOfFile]
